<mxfile host="app.diagrams.net" modified="2023-02-25T16:59:54.139Z" agent="5.0 (X11; Ubuntu)" etag="F9nDoVViQSViN6VBdz3B" version="20.8.23" type="github">
  <diagram name="Page-1" id="r39fSKr93wRbfH4L0HHE">
    <mxGraphModel dx="1195" dy="662" grid="1" gridSize="10" guides="1" tooltips="1" connect="1" arrows="1" fold="1" page="1" pageScale="1" pageWidth="850" pageHeight="1100" math="0" shadow="0">
      <root>
        <mxCell id="0" />
        <mxCell id="1" parent="0" />
        <mxCell id="1i-nQT_1wn47UBMq2Dho-7" value="" style="group" vertex="1" connectable="0" parent="1">
          <mxGeometry x="80" y="50" width="100" height="360" as="geometry" />
        </mxCell>
        <mxCell id="1i-nQT_1wn47UBMq2Dho-1" value="" style="endArrow=none;html=1;rounded=0;" edge="1" parent="1i-nQT_1wn47UBMq2Dho-7">
          <mxGeometry width="50" height="50" relative="1" as="geometry">
            <mxPoint x="45" y="430" as="sourcePoint" />
            <mxPoint x="45" y="40" as="targetPoint" />
            <Array as="points">
              <mxPoint x="45" y="360" />
            </Array>
          </mxGeometry>
        </mxCell>
        <mxCell id="1i-nQT_1wn47UBMq2Dho-6" value="Django App" style="text;html=1;align=center;verticalAlign=middle;resizable=0;points=[];autosize=1;strokeColor=#6c8ebf;fillColor=#dae8fc;rounded=1;glass=0;shadow=1;fontColor=#000000;fontSize=14;" vertex="1" parent="1i-nQT_1wn47UBMq2Dho-7">
          <mxGeometry width="100" height="30" as="geometry" />
        </mxCell>
        <mxCell id="1i-nQT_1wn47UBMq2Dho-8" value="" style="group" vertex="1" connectable="0" parent="1">
          <mxGeometry x="530" y="50" width="115" height="360" as="geometry" />
        </mxCell>
        <mxCell id="1i-nQT_1wn47UBMq2Dho-9" value="" style="endArrow=none;html=1;rounded=0;" edge="1" parent="1i-nQT_1wn47UBMq2Dho-8">
          <mxGeometry width="50" height="50" relative="1" as="geometry">
            <mxPoint x="45" y="430" as="sourcePoint" />
            <mxPoint x="45" y="40" as="targetPoint" />
            <Array as="points">
              <mxPoint x="45" y="360" />
            </Array>
          </mxGeometry>
        </mxCell>
        <mxCell id="1i-nQT_1wn47UBMq2Dho-10" value="Stripe Dashboard" style="text;html=1;align=center;verticalAlign=middle;resizable=0;points=[];autosize=1;strokeColor=#6c8ebf;fillColor=#dae8fc;rounded=1;glass=0;shadow=1;fontColor=#000000;fontSize=14;" vertex="1" parent="1i-nQT_1wn47UBMq2Dho-8">
          <mxGeometry x="-15" width="130" height="30" as="geometry" />
        </mxCell>
        <mxCell id="1i-nQT_1wn47UBMq2Dho-11" value="" style="endArrow=classic;html=1;rounded=0;fontSize=14;fontColor=#FFFFFF;" edge="1" parent="1i-nQT_1wn47UBMq2Dho-8">
          <mxGeometry width="50" height="50" relative="1" as="geometry">
            <mxPoint x="-410" y="110" as="sourcePoint" />
            <mxPoint x="40" y="110" as="targetPoint" />
          </mxGeometry>
        </mxCell>
        <mxCell id="1i-nQT_1wn47UBMq2Dho-13" value="&lt;div&gt;User is Redirected to Stripe Dashboard &lt;br&gt;&lt;/div&gt;&lt;div&gt;with an OAuth Link&lt;/div&gt;" style="text;html=1;align=center;verticalAlign=middle;resizable=0;points=[];autosize=1;strokeColor=none;fillColor=none;fontSize=14;fontColor=#1A1A1A;" vertex="1" parent="1">
          <mxGeometry x="210" y="110" width="270" height="50" as="geometry" />
        </mxCell>
        <mxCell id="1i-nQT_1wn47UBMq2Dho-14" value="" style="endArrow=classic;html=1;rounded=0;fontSize=14;fontColor=#1A1A1A;" edge="1" parent="1">
          <mxGeometry width="50" height="50" relative="1" as="geometry">
            <mxPoint x="570" y="240" as="sourcePoint" />
            <mxPoint x="130" y="240" as="targetPoint" />
          </mxGeometry>
        </mxCell>
        <mxCell id="1i-nQT_1wn47UBMq2Dho-15" value="Redirected Back with an Auth Code" style="text;html=1;align=center;verticalAlign=middle;resizable=0;points=[];autosize=1;strokeColor=none;fillColor=none;fontSize=14;fontColor=#1A1A1A;" vertex="1" parent="1">
          <mxGeometry x="225" y="205" width="240" height="30" as="geometry" />
        </mxCell>
        <mxCell id="1i-nQT_1wn47UBMq2Dho-16" value="" style="endArrow=classic;html=1;rounded=0;fontSize=14;fontColor=#1A1A1A;" edge="1" parent="1">
          <mxGeometry width="50" height="50" relative="1" as="geometry">
            <mxPoint x="130" y="320" as="sourcePoint" />
            <mxPoint x="570" y="320" as="targetPoint" />
          </mxGeometry>
        </mxCell>
        <mxCell id="1i-nQT_1wn47UBMq2Dho-19" value="Storing that Auth Code in User Database" style="whiteSpace=wrap;html=1;aspect=fixed;rounded=1;shadow=1;glass=0;fontSize=14;fontColor=#1A1A1A;" vertex="1" parent="1">
          <mxGeometry x="30" y="200" width="80" height="80" as="geometry" />
        </mxCell>
        <mxCell id="1i-nQT_1wn47UBMq2Dho-20" value="&lt;div&gt;Django App Makes request to &lt;br&gt;&lt;/div&gt;&lt;div&gt;Stripe with the saved Auth Code&lt;/div&gt;" style="text;html=1;align=center;verticalAlign=middle;resizable=0;points=[];autosize=1;strokeColor=none;fillColor=none;fontSize=14;fontColor=#1A1A1A;" vertex="1" parent="1">
          <mxGeometry x="235" y="275" width="220" height="50" as="geometry" />
        </mxCell>
        <mxCell id="1i-nQT_1wn47UBMq2Dho-21" value="" style="endArrow=classic;html=1;rounded=0;fontSize=14;fontColor=#1A1A1A;" edge="1" parent="1">
          <mxGeometry width="50" height="50" relative="1" as="geometry">
            <mxPoint x="570" y="400" as="sourcePoint" />
            <mxPoint x="130" y="400" as="targetPoint" />
          </mxGeometry>
        </mxCell>
        <mxCell id="1i-nQT_1wn47UBMq2Dho-22" value="&lt;div&gt;Gets Response from the Stripe &lt;br&gt;&lt;/div&gt;&lt;div&gt;by using the Auth Code&lt;/div&gt;" style="text;html=1;align=center;verticalAlign=middle;resizable=0;points=[];autosize=1;strokeColor=none;fillColor=none;fontSize=14;fontColor=#1A1A1A;" vertex="1" parent="1">
          <mxGeometry x="235" y="355" width="220" height="50" as="geometry" />
        </mxCell>
      </root>
    </mxGraphModel>
  </diagram>
</mxfile>
